<?xml version="1.0" encoding="utf-8"?>
<!-- Generator: Adobe Illustrator 22.1.0, SVG Export Plug-In . SVG Version: 6.00 Build 0)  -->
<svg version="1.1" id="Layer_1" xmlns="http://www.w3.org/2000/svg" xmlns:xlink="http://www.w3.org/1999/xlink" x="0px" y="0px"
	 width="170.7px" height="37.3px" viewBox="0 0 170.7 37.3" style="enable-background:new 0 0 170.7 37.3;" xml:space="preserve">
<style type="text/css">
	.st0{fill:#FFFFFF;}
</style>
<title>GameNestLogo</title>
<g>
	<path class="st0" d="M10.6,16.6h8v11.6c0,5.9-2.9,9.2-8.5,9.2S1.6,34,1.6,28.1v-19C1.6,3.3,4.5,0,10.1,0s8.5,3.3,8.5,9.2v3.5h-5.4
		V8.8c0-2.7-1.1-3.6-3-3.6c-1.8,0-3,0.9-3,3.6v19.7c0,2.7,1.1,3.5,3,3.5c1.8,0,3-0.9,3-3.5v-6.7h-2.6V16.6z"/>
	<path class="st0" d="M40.9,36.9h-5.8l-1-6.6h-7l-1,6.6h-5.3l5.8-36.5H35L40.9,36.9z M27.8,25.3h5.5L30.5,6.9L27.8,25.3z"/>
	<path class="st0" d="M55.7,26.3l3.9-25.9h8v36.5h-5.4V10.7l-4,26.2h-5.4l-4.3-25.8v25.8h-5V0.4h8L55.7,26.3z"/>
	<path class="st0" d="M77.4,15.8h7.9V21h-7.9v10.7h9.9v5.2H71.7V0.4h15.6v5.2h-9.9C77.4,5.6,77.4,15.8,77.4,15.8z"/>
	<path class="st0" d="M96,10.5v26.4h-5.2V0.4H98l5.9,21.8V0.4h5.1v36.5h-5.9L96,10.5z"/>
	<path class="st0" d="M118.9,15.8h7.9V21h-7.9v10.7h9.9v5.2h-15.6V0.4h15.6v5.2h-9.9V15.8z"/>
	<path class="st0" d="M140,0c5.6,0,8.4,3.3,8.4,9.2v1.1H143V8.8c0-2.7-1-3.6-2.9-3.6c-1.8,0-2.9,0.9-2.9,3.6c0,2.5,1.3,4.3,2.9,6
		c0.8,0.9,1.7,1.7,2.7,2.6c1.9,1.7,3.6,3.7,4.7,6.3c0.6,1.3,0.8,2.8,0.8,4.5c0,5.9-2.9,9.2-8.5,9.2s-8.5-3.3-8.5-9.2V26h5.4v2.6
		c0,2.7,1.1,3.5,3,3.5c1.8,0,3-0.9,3-3.5c0-2.5-1.3-4.3-2.9-6c-0.8-0.8-1.7-1.7-2.7-2.6c-1.9-1.7-3.7-3.6-4.8-6.2
		c-0.6-1.3-0.8-2.8-0.8-4.5C131.6,3.3,134.4,0,140,0z"/>
	<path class="st0" d="M150.2,0.4h17.7v5.2h-6v31.3h-5.7V5.6h-6V0.4z"/>
</g>
</svg>
